<mxfile host="app.diagrams.net" modified="2023-12-04T09:20:34.721Z" agent="Mozilla/5.0 (X11; Linux x86_64; rv:120.0) Gecko/20100101 Firefox/120.0" version="22.1.5" etag="lkw7gyIILixiA5QU714L" type="github">
  <diagram name="Page-1" id="uH_pxH3vNJxKoPwMdFb4">
    <mxGraphModel>
      <root>
        <mxCell id="0" />
        <mxCell id="1" parent="0" />
      </root>
    </mxGraphModel>
  </diagram>
</mxfile>
